<?xml version="1.0" encoding="utf-8"?>
<!-- Generator: Adobe Illustrator 22.1.0, SVG Export Plug-In . SVG Version: 6.00 Build 0)  -->
<svg version="1.1" id="Layer_1" xmlns="http://www.w3.org/2000/svg" xmlns:xlink="http://www.w3.org/1999/xlink" x="0px" y="0px"
	 viewBox="0 0 1619.3 559.8" enable-background="new 0 0 1619.3 559.8" xml:space="preserve">

<defs>
	<style>
		#logo-svg {
			stroke-dasharray: 800;
			stroke-dashoffset: 0;
			-webkit-animation: dash 2 linear forwards;
			-o-animation: dash 2 linear forwards;
			-moz-animation: dash 2 linear forwards;
			animation: dash 2 linear forwards;
		}
		@-webkit-keyframes dash {
			from {
				stroke-dashoffset: 800s;
			}
			to {
				stroke-dashoffset: 0;
			}
		}
	</style>
</defs>

<path id="logo-svg" fill="none" stroke="#000000" stroke-width="5" stroke-miterlimit="10" d="M1549.7,258.8c-13.6,0.6-27.2,0-32.4,16.9
	c-1.2,3.8-5.2,6.2-9.7,5.3c-8.9-1.7-8.1-9.7-8.9-17.7c-20,11.6-38.7,15.2-58.7,2.7c-6.5-4.1-15.6-2.5-23,1.3
	c-5.1,2.7-10.3,3.6-15.8,1.7c-7.3-2.4-4.4-9.9-14.3-12.5c-11.5-0.8-18.2,0.3-24.5,1.3c-17.8,2.7-23.2,3.7-26.3,5
	c-7.5,3.2-13.1,7.1-16.7,10c-10.7,6.4-21.5,16-25.4,28.2c-2.9,9.1-13.6,10.7-22.5,17.7c15.2-0.9,28.2,0.3,40.8-4.5
	c9.3-3.6,17.8-2.2,23.3,7c5.6,9.5-0.6,15.8-6.7,22c-7.5,7.6-16.7,12.5-26.6,16c-9,3.2-12.2,9.2-11.8,18.2
	c0.6,14.5,4.1,28.4,7.2,42.5c2.2,9.8,4.4,19.9-4.6,27.7c-9,7.8-18.7,4.4-28.1,0.8c-10.2-3.9-20.1-8.7-28.3-16.2
	c-4.1-3.8-7.6-8.8-3.9-14.4c3.5-5.3,9-3.4,13.5-1.4c7.3,3.1,14.1,7.2,21.4,10.4c7,3.1,10.7,1.2,8.6-7.1c-3.5-14-7-27.9-7.9-42.4
	c-0.3-5.8-3.8-7.3-9.2-6.8c-8.4,0.9-16.8,1.5-25.2,1.8c-7.7,0.2-16.2-0.5-17.4-10c-1.2-9.5,7.4-11.8,14.5-14.1
	c5.5-1.7,11.1-2.8,16.4-5.6c-8.4,0-16.8,0.1-25.2,0c-7.3-0.1-13.1,0.2-14.9,9.9c-1.5,8-9.9,10.5-16.9,13c-10.3,3.7-20.5,7.5-29.5,14
	c-4.4,3.2-6.7,8.4-5.9,13c1.1,6.5,7.4,2.7,11.2,3c9.2,0.6,18.2,1.5,23.2,10.5c4.9,8.9-1.4,14.9-6.8,20.8c-2.7,3-4.2,5.4,0.9,7.9
	c10,5,5.7,10.7-0.9,13.8c-7.5,3.5-16.1,4.8-24.1,7.4c-9.9,3.3-15.5-1.9-21.6-8.7c-4.3-4.8-13.8-1.4-17.7-9
	c-5.5-10.9-3.3-21.3,1.9-31.3c3.2-6.2,6.5-11.7,4.8-19.5c-1.6-6.9,3.5-12.1,8.9-16c5.2-3.7,10.6-7,16.8-11.1
	c-11.7,0-22.3,0.3-32.8-0.1c-7.4-0.3-14.1-3.2-15.7-11.2c-1.8-8.5,4.5-12.7,11.1-15.5c16-6.7,32.7-11.6,47.4-23.6
	c-12.8,0-25.5,0.1-38.3,0c-5.4-0.1-11-0.1-16.3-1.1c-8.5-1.5-17.4-4.1-18.9-14.1c-1.4-9.7,6.7-14.1,14-17
	c15.2-6.2,30.7-11.5,46.1-16.8c10.4-3.6,13.1-8,3.5-16c-4-3.3-7.9-7.4-7.5-11.7c-14,4.2-20.3,2.9-32.4,3c-12.8,0.2-19-0.4-30.5,3
	c-10.4,3-19,6.4-24.2,8.2c-20.8,11.5-26.6,42.2-27.1,65.6c-0.7,37.1,0.1,74.2,0.2,111.3c0,11.2-0.8,22.3-9.5,30.7
	c-8.7,8.3-18.6,10.1-27.1,0.8c-9.3-10.2-4.4-16.3,7.5-20.3c7.8-2.6,9-10.7,9.1-17.8c0.2-14.2,1.1-28.6-0.8-42.5
	c-4.3-31.6-5.4-62.9,4.2-93.8c3.6-11.4,2.3-19.1-12.4-17.6c-25.8,3.6-51.5,7-77.2,10.8c-7.1,1.1-50.7,8.8-62.4,3.3
	c-6.2,10.1-12.3,20.2-18.2,30.5c-4.2,7.2-8.1,14.5-13.5,24.5c9.7-2.9,14.9-8,20.6-11.9c8.4-5.8,16.7-11.9,26.7-14.9
	c16.8-5.1,29.7,3.8,31.3,21.4c1.3,14.7-4.5,28.2-8.3,45.5c12.9-9.7,23.6-17.8,34.3-25.8c3.3-2.5,6.3-5.6,10-7.4
	c15.4-7.7,33.5-6.4,41.8,2.7c8.6,9.5,8.2,26.6-1,43.2c-8.6,15.5-21.5,22.4-36.5,19.6c-4.8-0.9-9.4-2.6-12.1-6.4
	c-7.6-10.7-14.6-8.6-22.1,0c-2.1,2.4-5.1,4.1-7.6,6.1c-7.5,5.9-15.6,8.4-24.6,3.8c-8.6-4.4-10.5-12.4-11.1-21.1
	c-0.9-12.8,2.4-24.9,6-37c1.1-3.9,4.4-8.8,0.8-11.7c-4.7-3.8-8.4,1.8-11.8,4.2c-19.4,13.6-38.6,27.5-57.9,41.3
	c-6.7,4.8-13.6,8.8-21.5,2.6c-8.5-6.7-5.7-14.8-2.1-22.7c7.7-16.7,15.5-33.3,22.8-50.4c-31,33.4-65.4,63-98.5,94.1
	c-30.3,28.5-64.1,52.3-99.7,73.4c-18.3,10.8-38.4,16.5-59.9,15.5c-9.9-0.5-17.7-5.2-21.4-15.2c-3.2-8.5-0.3-15.5,5.4-21.7
	c7.2-7.8,14.8-8.9,19.9,1.6c3.8,7.9,9.4,8.1,16.1,6.4c5.4-1.4,11-2.5,15.9-5c46.5-24.2,64.8-34.2,103.9-72.4
	c-33-8.3-69.2-0.2-99.8-19.3c-8.3-5.2-13.1-1.9-18.9,2.8c-14.5,11.8-27.3,11.7-38-5.2c-2-3.2-5.2-5.7-7.8-8.5
	c-15.2,17.8-37.9,2.1-54.8,12.2c-4.9,2.9-12.4,7.4-15.2,3c-14.5-23.5-27.5-9.3-41.3,0.1c-4.1,2.7-10.7,3.5-13.6,0
	c-15.3-18.7-24.6-6.3-34.8,5.6c-4.7,5.4-10.5,11.5-17.9,11c-26-1.7-34,16.3-40.5,35.8c-8.9,26.5-17.1,53.1-31.1,77.6
	c-9.3,16.2-20.6,30.3-37.2,39.5c-8.7,4.8-17.7,8.4-26.7,1c-8.8-7.3-8-16.8-4.5-26.3c8.2-22.9,20.3-44.9,37-61
	c61.7-59.8,71-138.2,82.1-216.4c4.1-28.8,8.4-57.6,13.3-91.5c-35.8,31.9-63.9,64.4-97.7,90.7c-61.7,48-122.6,97.1-194.6,129.4
	c-4.4,2-8.8,4-13.3,5.2c-8.3,2.2-19.6,6.9-23.6-3c-5.1-12.6,8.7-12.2,15.9-15.2c51-21.7,96.7-52.5,140.6-85.7
	c66.1-50.1,131.6-101,180.7-169.4c11.8-16.4,20.5-34,28.7-52.2c5.2-11.6,11.5-22.8,18.6-33.3c5.5-8,13.7-15.2,24.3-9.3
	c11.1,6.2,7.3,16.2,3.6,25.3c-1.5,3.7-3,7.6-5.5,10.6c-48.2,56.3-59.8,125-68.2,195.4c-4.5,37.8-12.2,75.2-18.9,115.6
	c14.7-8.1,20.4-20.1,28.7-29.5c19.3-21.6,32.2-20.9,43.3,6.5c9,22.2,14.6,12.2,22.4,0.8c0.9-1.3,1.6-2.8,2.6-4
	c6.4-8.3,6.3-24.4,21-22.7c14,1.7,11.2,17,15.3,28.6c12.6-12.4,24.6-24.3,34.8-0.3c3.4,8.1,7.4,5,12.5,0.4
	c24.7-22.4,27.2-21.6,38.6,9.3c1.1,2.9,2.6,5.7,4.8,10.4c13-7.7,17-21.2,24.9-31.3c1.9-2.5,3.8-5.1,6-7.1
	c-11.4-4.9-19.4-12.7-15.4-22.9c3.8-9.7,13.7-9.8,25.3-5.5c12.1,5.2,20,12.2,15.4,22.5c-1,2.3-5.6,6.5-7.3,7.9
	c1.9,3.5,1.6,8.2,1.7,12.6c0,4-0.2,8,0.2,11.9c0.7,6.5,1.9,13.5,10.1,13.9c7.5,0.4,7.9-6.5,9-11.9c1.7-8.8,5-16.9,11.2-23.4
	c8-8.5,17.1-15.6,29.4-9.7c13.3,6.3,13.9,18.3,11.3,30.8c-5.7,26.9,13.3,24.9,22.3,23.9c18.8-2,27.2-13.9,33.1-17.4
	c11.1-9.4,71.3-71,79.9-82.5c46-61.2,97.3-118.6,135.6-185.6c6.7-11.7,13.4-23.4,20.4-34.9c5.1-8.3,10.5-18.8,22.6-11.7
	c12.2,7.1,7.4,17.6,2,26.8c-14.2,24.5-29.8,48.3-43,73.3c-22.9,43.4-50.1,84.2-76.1,125.7c10-2.2,66.3-11.1,76.5-12
	c37-3.3,73.5-9.8,109.4-19.5c5.1-1.4,10.6-2.5,14.9-0.9c5.9,1.6,12.9,3.1,20.7,3.9c14.9,1.6,26.3,0.2,29.8-0.3
	c11-1.5,21.2-4.2,28.8-7.2c5.7-1.9,10.5,2.9,14.8,7.6c20.4,22.3,18,34.4-9.4,46.9c-5.8,2.6-11.7,5-17.4,10.1c11,0,22.1,0,33.1,0
	c7,0,14.1,0.2,20.4,3.3c11.5,5.5,11.4,13.7,2,25.1c27.1-6.2,52.5-8.3,77.7-23c-11.2-3.8-18.5-0.1-25.9,1.1c-5.6,0.9-11.5,1.7-13.8-5
	c-2.3-6.4,2.1-12.1,7.2-12.8c21.4-2.8,32-12,30.4-35.7c-0.7-10.5,10.3-17.7,22-18.4c8-0.4,18.2,5.5,24.8,13.3
	c5.6,4.9,7.8,5,19.7,9.4c23,8.4,43.5,4.1,51.8,1.8c9-3.9,14.4-4.4,19.1-4.6c13.6-0.7,19.6-0.7,25.6-17.3c3-8.1,14-9.1,22.5-8.3
	c6.5,0.6-7.6,22.4,16.7,21.9c31.2-0.6,65.3-20.8,96.5-19.9c9,0.2,17.9,1,26.2,4.9c5,2.3,10.2,5.1,10.6,11.3
	c0.5,6.9-4.3,11.1-9.8,13.7c-10.7,5-22.1,7.3-33.6,8.4c3,31.8,0.4,58.6,14.9,52.3c45.4-10.7,21.3,17.7,0.8,22.5
	c-7.4,1.8-4.7,6.9-3.7,12.8c3.8,23.5,7.5,47,10.9,70.6c0.8,5.8,1,11.9,0.2,17.7c-1.3,9-6.4,15.6-15.4,18.3
	c-8.4,2.5-16.4,0.5-21.5-6.4c-13.4-17.7-28.4-34.5-36.8-55.5c-1.5-3.7-1.6-8.4-7.3-6.9c-12,3.1-24,6.3-35.8,10.1
	c-7.2,2.3-7.3,8.7-6.6,14.9c1.1,9.4,2.2,18.7,3.5,28c1.1,8.1-0.2,15.2-8.6,18.5c-8.5,3.2-14.7-0.7-18.1-8.4
	c-3.2-7.3-6.9-6.7-12.5-2.9c-6.2,4.2-12.6,3.9-16.7-2.9c-4.1-6.7,0.5-11.6,5.3-15.2c5.9-4.4,12.5-8,18.8-11.9c2.5-1.6,5.6-3,4.7-6.6
	c-0.8-3.2-3.9-2-6.2-2.4c-7.4-1.1-14.4-3-17.7-8.5c-2.7,11.1-6.7,21.8-13.1,31.8c-5.2,8.1-11.7,14.8-20.2,19.3
	c-7,3.7-13.8,3.6-18.2-3.8c-4.5-7.6,1-11.3,6.6-15.4c23.7-17.3,25.9-43.2,25.6-69.3c-0.1-6.5-1.7-12.3,2.3-18.2
	c3.3-4.8,3.7-10.1,0.5-15.5c-5.5-9.4,0-14.9,7.5-19.3c15.9-9.4,33.2-12.9,57.4-11.5c6.8,0.9,24.1-5.5,29,11.4
	c4.7,15.9-12.3,22-21.8,30.3c-10.5,9.1-23.4,15.5-36.6,19.4c-7.8,2.3-11.9,6.2-13.9,12.2c4.8-4.4,24.3-8.9,37.7-10.2
	c12.8-1.2,25.7-2.2,38.5-3.1c9.8-0.7,15.4,3,21.2,12.1c13.4,21.4,29.5,41.2,46.4,64.3c-1.4-17.6,2-33-18.5-38.2
	c-8-2-11.1-11.3-8.6-20c2.6-8.8,9.6-10.2,18.5-6.5c-0.8-6.2-1.4-10.5-2-14.9c-1-7.8-4.7-11.8-13.1-9.6c-1,0.3-1.9,0.5-2.9,0.6
	c-9.7,0.7-23.5,8-25.9-7.3c-2.2-13.9,11.8-12.9,21.4-14c8.5-1,12.3-5.4,11.9-13.9c-0.1-3,0-6,0-8.9
	C1546.1,292.2,1547.7,263.5,1549.7,258.8z"/>
</svg>
